####
#
# OBJ File Generated by Meshlab
#
####
# Object microwave_door.obj
#
# Vertices: 8
# Faces: 24
#
####
mtllib ./microwave_door.obj.mtl

vn 0.966376 0.141421 -0.214750
v -0.095000 0.205000 -0.135000
vn 0.997795 -0.036505 -0.055433
v -0.095000 -0.205000 -0.135000
vn -0.991266 -0.072532 -0.110141
v -0.125000 -0.205000 -0.135000
vn -0.991266 0.072532 -0.110141
v -0.125000 0.205000 -0.135000
vn 0.997795 0.036505 0.055433
v -0.095000 0.205000 0.135000
vn 0.966376 -0.141421 0.214750
v -0.095000 -0.205000 0.135000
vn -0.991266 -0.072532 0.110140
v -0.125000 -0.205000 0.135000
vn -0.991266 0.072532 0.110141
v -0.125000 0.205000 0.135000
# 8 vertices, 0 vertices normals


usemtl material_0
vt 0.000000 0.000000
f 1/1/1 3/1/3 4/1/4
f 8/1/8 6/1/6 5/1/5
vt 0.999900 0.999900
vt 0.000100 0.000100
vt 0.999900 0.000100
f 5/2/5 2/3/2 1/4/1
f 6/1/6 3/1/3 2/1/2
f 3/1/3 8/1/8 4/1/4
f 1/1/1 8/1/8 5/1/5
f 1/1/1 2/1/2 3/1/3
f 8/1/8 7/1/7 6/1/6
vt 0.000100 0.999900
f 5/2/5 6/5/6 2/3/2
f 6/1/6 7/1/7 3/1/3
f 3/1/3 7/1/7 8/1/8
f 1/1/1 4/1/4 8/1/8
f 1/1/1 3/1/3 4/1/4
f 8/1/8 6/1/6 5/1/5
f 5/2/5 2/3/2 1/4/1
f 6/1/6 3/1/3 2/1/2
f 3/1/3 8/1/8 4/1/4
f 1/1/1 8/1/8 5/1/5
f 1/1/1 2/1/2 3/1/3
f 8/1/8 7/1/7 6/1/6
f 5/2/5 6/5/6 2/3/2
f 6/1/6 7/1/7 3/1/3
f 3/1/3 7/1/7 8/1/8
f 1/1/1 4/1/4 8/1/8
# 24 faces, 5 coords texture

# End of File